<svg width="32" height="32" viewBox="0 0 32 32" fill="none" xmlns="http://www.w3.org/2000/svg">
<path d="M31.1988 16.1591C31.1988 14.8796 31.0951 13.9458 30.8876 12.9775H16.2939V18.7182H24.8357C24.6628 20.136 23.7291 22.3147 21.6542 23.7326L21.6196 23.9401L26.219 27.502L26.5303 27.5366C29.5043 24.8392 31.1988 20.8623 31.1988 16.1591Z" fill="#4285F4"/>
<path d="M16.2939 31.3055C20.4783 31.3055 24.0057 29.9222 26.5648 27.5361L21.6887 23.732C20.3746 24.6312 18.6109 25.2882 16.3285 25.2882C12.2132 25.2882 8.75497 22.5908 7.51001 18.856H7.3371L2.56477 22.5562L2.49561 22.7292C5.0201 27.8127 10.242 31.3055 16.2939 31.3055Z" fill="#34A853"/>
<path d="M7.47553 18.8562C7.1643 17.8879 6.9568 16.8504 6.9568 15.7784C6.9568 14.7063 7.12971 13.6689 7.44095 12.7006V12.4931L2.59945 8.72363L2.42654 8.7928C1.38908 10.9023 0.766602 13.2539 0.766602 15.7438C0.766602 18.2337 1.3545 20.5853 2.42654 22.6948L7.47553 18.8562Z" fill="#FBBC05"/>
<path d="M16.2939 6.30253C19.1988 6.30253 21.17 7.54749 22.2767 8.61954L26.634 4.36593C23.9366 1.87602 20.4438 0.319824 16.2594 0.319824C10.2075 0.319824 4.95101 3.81262 2.42651 8.86161L7.44092 12.7694C8.72046 8.99994 12.2133 6.30253 16.2939 6.30253Z" fill="#EB4335"/>
</svg>
